<svg width="156" height="156" viewBox="0 0 156 156" fill="none" xmlns="http://www.w3.org/2000/svg">
<circle cx="78" cy="78" r="78" fill="white"/>
<path d="M60.4 83.364L43.652 66.62C42.1662 65.1343 40.9876 63.3704 40.1835 61.4292C39.3793 59.4879 38.9655 57.4073 38.9655 55.306C38.9655 53.2048 39.3793 51.1242 40.1835 49.1829C40.9876 47.2417 42.1662 45.4778 43.652 43.992L71.712 72.048L60.4 83.368V83.364ZM87.528 76.116L81.656 82L109.168 109.512L103.512 115.168L75.996 87.652L48.484 115.172L42.828 109.512L81.872 70.464C79.024 64.364 81.024 55.756 87.392 49.388C95.044 41.732 106 40.28 111.856 46.136C117.716 51.992 116.26 62.948 108.604 70.6C102.24 76.968 93.628 78.972 87.528 76.12V76.116Z" fill="#141C26"/>
</svg>
