<svg width="354" height="51" viewBox="0 0 354 51" fill="none" xmlns="http://www.w3.org/2000/svg">
<path d="M177 2.5L184.5 17.5L199.5 19.375L189.2 30.925L192 47.5L177 40L162 47.5L164.825 30.925L154.5 19.375L169.5 17.5L177 2.5Z" fill="#F2B705"/>
<path d="M101 3.5L108.5 18.5L123.5 20.375L113.2 31.925L116 48.5L101 41L86 48.5L88.825 31.925L78.5 20.375L93.5 18.5L101 3.5Z" fill="#F2B705"/>
<path d="M25 3.5L32.5 18.5L47.5 20.375L37.2 31.925L40 48.5L25 41L10 48.5L12.825 31.925L2.5 20.375L17.5 18.5L25 3.5Z" fill="#F2B705"/>
<path d="M253 2.5L260.5 17.5L275.5 19.375L265.2 30.925L268 47.5L253 40L238 47.5L240.825 30.925L230.5 19.375L245.5 17.5L253 2.5Z" fill="#F2B705"/>
<path d="M329 2.5L336.5 17.5L351.5 19.375L341.2 30.925L344 47.5L329 40L314 47.5L316.825 30.925L306.5 19.375L321.5 17.5L329 2.5Z" fill="#F2B705"/>
</svg>
